<?xml version="1.0" standalone="no"?>
<!DOCTYPE svg PUBLIC "-//W3C//DTD SVG 20010904//EN"
 "http://www.w3.org/TR/2001/REC-SVG-20010904/DTD/svg10.dtd">
<svg version="1.0" xmlns="http://www.w3.org/2000/svg"
 width="320.000000pt" height="320.000000pt" viewBox="0 0 320.000000 320.000000"
 preserveAspectRatio="xMidYMid meet">
<metadata>
Created by potrace 1.14, written by Peter Selinger 2001-2017
</metadata>
<g transform="translate(0.000000,320.000000) scale(0.100000,-0.100000)"
fill="#000000" stroke="none">
<path d="M0 1600 l0 -1600 1600 0 1600 0 0 1600 0 1600 -1600 0 -1600 0 0
-1600z m1859 1361 c247 -48 467 -154 661 -318 221 -186 387 -470 456 -778 25
-112 30 -363 10 -486 -20 -121 -79 -306 -129 -406 -166 -329 -475 -596 -814
-704 -55 -17 -73 -27 -73 -41 0 -13 8 -18 25 -18 26 0 29 -4 39 -52 l6 -28
-95 2 c-53 0 -98 6 -102 11 -3 6 7 21 23 34 28 24 28 25 4 18 -19 -6 -22 -4
-14 5 7 6 22 10 35 8 18 -2 25 -10 27 -31 2 -15 9 -27 18 -27 18 0 20 76 2 82
-6 2 -35 -1 -62 -7 -46 -10 -53 -15 -71 -53 -29 -58 -51 -80 -67 -64 -9 9 -8
12 4 12 26 0 30 17 14 48 -11 22 -22 29 -45 29 -17 0 -31 -4 -31 -9 0 -4 6 -8
14 -8 24 0 38 -26 22 -39 -18 -15 -58 -11 -64 7 -3 9 4 11 25 7 26 -5 27 -5 6
6 -13 7 -23 16 -23 21 0 4 -7 8 -16 8 -13 0 -15 -7 -10 -30 l6 -31 -98 3 c-78
2 -97 6 -97 18 0 8 10 19 23 25 27 12 29 29 2 20 -11 -4 -20 -2 -20 4 0 6 -5
11 -11 11 -7 0 -10 -15 -7 -40 3 -35 1 -40 -18 -40 -19 0 -21 5 -18 40 1 22
-2 42 -7 45 -5 4 -9 1 -9 -4 0 -6 -7 -11 -16 -11 -9 0 -14 -6 -11 -12 21 -59
23 -57 -50 -56 -73 1 -100 12 -83 33 6 7 9 19 8 26 -2 9 7 14 27 14 23 0 30
-5 35 -25 3 -14 14 -26 23 -28 14 -3 17 4 15 36 -1 37 -4 41 -35 47 -61 11
-186 56 -282 101 -482 226 -795 720 -794 1254 0 585 371 1115 916 1308 257 91
480 110 726 63z m-1169 -2735 c0 -19 4 -23 20 -19 20 5 23 1 34 -49 5 -23 3
-28 -12 -28 -15 0 -17 6 -14 36 3 28 1 35 -9 32 -8 -3 -14 -19 -14 -36 0 -23
-4 -32 -16 -32 -13 0 -15 9 -11 50 3 38 1 50 -9 50 -11 0 -11 2 1 10 23 15 30
12 30 -14z m431 -3 c2 -58 4 -66 18 -71 11 -4 13 2 8 27 -6 30 -5 31 28 31 19
0 35 -4 35 -10 0 -5 -7 -10 -16 -10 -13 0 -15 -7 -11 -30 l6 -29 -67 2 c-76 3
-92 10 -92 38 0 14 10 25 30 32 17 6 28 17 26 23 -6 15 3 24 21 24 7 0 13 -12
14 -27z m969 17 c0 -5 -4 -10 -10 -10 -5 0 -10 5 -10 10 0 6 5 10 10 10 6 0
10 -4 10 -10z m-2014 -39 c-3 -4 2 -17 10 -27 15 -18 15 -18 11 9 -3 21 0 27
13 27 11 0 21 -11 25 -27 l8 -28 10 28 c9 22 17 27 44 27 22 0 33 -5 33 -15 0
-7 7 -18 16 -23 9 -5 14 -14 10 -21 -12 -18 -23 -13 -36 19 -7 17 -20 30 -30
30 -10 0 -23 -13 -30 -30 -14 -34 -25 -38 -39 -12 -9 16 -10 16 -16 0 -10 -26
-21 -22 -44 17 l-20 35 20 0 c11 0 18 -4 15 -9z m210 1 c-2 -4 0 -14 5 -22 8
-13 10 -13 18 0 5 8 7 18 5 22 -3 4 2 8 10 8 13 0 12 -6 -5 -35 -12 -19 -24
-35 -28 -35 -6 0 -18 18 -39 63 -2 4 6 7 18 7 12 0 19 -4 16 -8z m100 -1 c-3
-4 2 -17 10 -27 15 -18 15 -18 11 9 -6 38 28 38 38 0 l8 -28 10 28 c6 15 17
27 25 27 11 0 11 -3 -2 -15 -8 -8 -18 -24 -21 -35 -8 -25 -21 -26 -34 -2 -9
16 -10 16 -16 0 -10 -26 -21 -22 -44 17 l-20 35 20 0 c11 0 18 -4 15 -9z m242
-23 c2 -16 8 -28 13 -28 6 0 8 -4 5 -9 -3 -4 -22 -8 -43 -7 -27 1 -39 6 -41
19 -2 9 1 17 5 17 5 0 18 7 29 16 18 15 18 15 -9 9 -20 -4 -27 -2 -22 5 4 6
19 10 33 8 21 -2 28 -9 30 -30z m277 18 c16 -53 15 -66 -4 -66 -17 0 -19 5
-14 36 5 29 3 36 -8 32 -8 -3 -14 -18 -14 -36 0 -26 -4 -32 -22 -32 -19 0 -21
4 -16 36 5 29 3 36 -8 32 -8 -3 -13 -18 -13 -37 2 -23 -2 -31 -15 -31 -12 0
-16 9 -16 39 l0 39 63 -1 c37 0 65 -5 67 -11z m103 -18 c2 -16 8 -28 13 -28 6
0 8 -4 4 -9 -7 -13 -67 -11 -84 2 -11 9 -8 16 15 35 27 22 28 23 5 17 -17 -5
-21 -4 -16 5 4 6 19 10 33 8 21 -2 28 -9 30 -30z m1084 0 c4 -39 24 -35 22 5
-2 24 1 27 32 27 19 0 34 -4 34 -10 0 -5 -7 -10 -15 -10 -21 0 -30 -27 -15
-45 11 -13 5 -15 -44 -15 -31 0 -56 5 -56 10 0 6 4 10 10 10 6 0 6 9 0 24 -9
25 -5 36 16 36 7 0 14 -15 16 -32z m162 20 c19 -60 17 -66 -18 -66 -56 0 -66
14 -31 44 26 22 27 25 8 19 -14 -4 -23 -2 -23 4 0 15 60 14 64 -1z m62 -4 c0
-9 5 -19 13 -22 10 -3 12 1 8 17 -4 16 -1 21 15 21 10 0 17 -4 14 -8 -2 -4 0
-14 5 -22 8 -13 10 -13 18 0 5 8 7 18 5 22 -3 4 2 8 11 8 13 0 12 -6 -5 -41
-20 -38 -22 -39 -35 -23 -11 16 -15 16 -29 5 -19 -16 -18 -16 -40 27 -16 31
-16 32 3 32 11 0 18 -6 17 -16z m188 4 c19 -60 17 -67 -16 -66 -18 0 -39 5
-47 11 -11 9 -8 16 15 35 27 22 28 23 5 17 -16 -5 -21 -4 -17 4 10 15 56 14
60 -1z m117 -30 c5 -32 3 -38 -13 -38 -14 0 -18 8 -18 35 0 26 -3 33 -15 29
-18 -7 -20 -35 -3 -52 9 -9 6 -12 -13 -12 -24 0 -26 3 -23 38 2 20 3 38 3 39
1 0 18 0 38 0 35 -2 38 -4 44 -39z m144 32 c4 -7 -2 -9 -18 -5 -14 4 -28 2
-32 -5 -10 -16 14 -40 39 -40 17 0 18 -2 6 -10 -8 -5 -20 -10 -27 -10 -13 0
-43 27 -43 40 0 29 61 53 75 30z m105 -5 c15 -18 10 -45 -12 -58 -22 -15 -68
6 -68 31 0 39 55 58 80 27z m65 -28 c1 -28 -2 -37 -14 -37 -12 0 -16 9 -14 37
2 48 1 45 14 41 6 -2 12 -20 14 -41z m105 18 c0 -13 3 -30 6 -39 4 -11 0 -16
-13 -16 -16 0 -18 6 -15 36 3 28 1 35 -9 32 -8 -3 -14 -19 -14 -36 0 -24 -4
-32 -18 -32 -14 0 -16 5 -11 25 3 14 1 31 -5 39 -9 10 -2 13 34 14 41 0 45 -2
45 -23z m-2500 -45 c0 -5 -2 -10 -4 -10 -3 0 -8 5 -11 10 -3 6 -1 10 4 10 6 0
11 -4 11 -10z m2140 6 c0 -11 -19 -15 -25 -6 -3 5 1 10 9 10 9 0 16 -2 16 -4z"/>
<path d="M1768 2633 c-23 -27 -41 -91 -33 -121 20 -82 94 -79 111 5 9 48 -12
48 -28 1 -15 -49 -38 -56 -52 -16 -11 32 11 119 33 126 13 4 11 -9 -6 -55 -3
-7 2 -13 10 -13 20 0 33 56 17 75 -16 20 -34 19 -52 -2z"/>
<path d="M1875 2638 c-4 -10 -13 -18 -21 -18 -8 0 -14 -7 -14 -15 0 -8 6 -12
15 -9 11 5 15 -7 17 -57 2 -46 8 -65 20 -73 13 -8 21 -7 32 4 19 19 32 70 18
70 -6 0 -13 -13 -17 -30 -4 -16 -12 -30 -20 -30 -16 0 -22 32 -17 88 4 39 6
42 32 42 16 0 32 5 35 10 4 6 -8 10 -29 10 -19 0 -36 6 -39 13 -3 8 -7 6 -12
-5z"/>
<path d="M1970 2640 c0 -5 4 -10 9 -10 6 0 13 5 16 10 3 6 -1 10 -9 10 -9 0
-16 -4 -16 -10z"/>
<path d="M1635 2609 c-18 -34 -16 -90 3 -97 8 -2 12 5 11 25 -3 33 9 73 20 73
9 0 21 -48 21 -80 0 -12 -10 -21 -29 -25 -37 -8 -63 -37 -59 -67 5 -37 29 -36
125 7 1 0 -4 38 -11 83 -18 114 -49 144 -81 81z m65 -139 c0 -17 -63 -40 -75
-29 -7 7 -4 15 9 25 23 16 66 19 66 4z"/>
<path d="M2073 2581 c-15 -33 -31 -60 -34 -60 -4 -1 -10 24 -14 54 -3 30 -11
55 -17 55 -15 0 0 -132 18 -150 18 -19 27 -8 54 68 13 34 27 65 31 68 12 7 11
24 0 24 -5 0 -22 -27 -38 -59z"/>
<path d="M1552 2617 c-6 -6 -14 -25 -17 -40 -7 -26 -8 -26 -20 -10 -13 17 -14
17 -21 0 -8 -22 4 -134 17 -159 15 -28 29 -21 27 15 -1 17 2 59 6 92 8 59 8
59 22 32 8 -15 19 -27 24 -27 13 0 13 51 0 84 -10 29 -22 33 -38 13z"/>
<path d="M2121 2593 c-37 -44 -41 -91 -11 -118 18 -16 21 -17 44 -1 28 18 49
50 39 59 -3 4 -14 -5 -25 -18 -30 -38 -67 -29 -53 14 4 13 12 17 29 14 19 -4
28 1 40 25 34 66 -14 84 -63 25z m47 -8 c-6 -14 -17 -25 -25 -25 -17 0 -16 5
3 35 20 31 37 23 22 -10z"/>
<path d="M1966 2569 c-11 -57 -7 -99 9 -99 12 0 15 14 15 65 0 68 -13 87 -24
34z"/>
<path d="M1356 2568 c-15 -25 -22 -46 -31 -93 -10 -56 38 -135 81 -135 44 0
78 73 58 124 -10 27 -24 18 -24 -16 0 -37 -19 -79 -37 -85 -11 -4 -43 45 -43
66 0 6 12 14 28 17 35 9 42 20 42 70 0 64 -46 96 -74 52z m39 -27 c8 -27 -5
-71 -21 -71 -15 0 -18 29 -8 68 8 27 21 29 29 3z"/>
<path d="M1124 2545 c-4 -8 -4 -22 0 -30 3 -10 -5 -20 -24 -30 -33 -17 -42
-51 -12 -42 9 2 23 6 31 8 9 3 21 -19 37 -72 24 -76 42 -101 80 -113 56 -17
97 85 54 134 l-21 25 5 -27 c4 -15 3 -46 0 -68 -6 -34 -10 -41 -28 -38 -16 2
-29 22 -53 83 -18 44 -32 85 -33 90 0 6 25 23 55 38 30 15 55 31 55 37 0 14
-12 13 -64 -10 l-47 -20 -9 25 c-11 29 -18 31 -26 10z"/>
<path d="M960 2411 c-5 -11 -10 -39 -10 -63 l-1 -43 -15 28 c-20 37 -38 35
-30 -4 9 -44 74 -157 102 -175 40 -27 44 -7 13 60 -38 82 -53 165 -33 186 22
22 40 -3 83 -115 35 -94 61 -130 61 -86 0 43 -49 174 -76 202 -33 34 -78 39
-94 10z"/>
<path d="M802 2399 c-27 -10 -40 -38 -22 -49 7 -4 9 -13 5 -20 -5 -9 -4 -11 3
-6 7 4 12 1 12 -8 0 -9 5 -16 10 -16 6 0 10 -5 10 -10 0 -6 18 -40 40 -75 21
-36 38 -71 36 -78 -1 -7 -1 -8 2 -4 5 9 38 -34 35 -44 -1 -4 7 -5 17 -2 27 7
26 12 -19 79 -21 33 -55 89 -76 126 -29 54 -34 71 -26 87 13 24 4 32 -27 20z"/>
<path d="M747 2373 c-8 -13 2 -43 14 -43 10 0 10 8 0 34 -5 12 -10 16 -14 9z"/>
<path d="M1664 2205 c-200 -59 -394 -180 -536 -334 -144 -156 -201 -327 -168
-501 31 -161 134 -268 306 -315 90 -25 330 -31 424 -11 149 32 277 111 391
241 31 35 28 34 -36 -16 -142 -107 -307 -165 -450 -156 -90 5 -140 25 -193 78
-68 67 -88 138 -72 258 18 136 77 241 212 380 79 80 195 163 219 156 11 -4 19
1 23 12 4 11 16 18 33 19 50 2 93 9 93 14 0 15 158 14 175 0 8 -7 15 -10 15
-6 0 13 66 -28 93 -58 l28 -31 -5 44 c-3 32 -13 53 -35 74 -29 30 -33 31 -146
35 -63 3 -115 9 -115 14 0 5 -24 36 -52 69 -62 69 -77 72 -204 34z"/>
<path d="M840 2203 c0 -4 9 -19 20 -33 16 -20 19 -21 13 -5 -8 22 -33 51 -33
38z"/>
<path d="M974 2078 c-16 -12 -30 -22 -32 -23 -1 -1 0 -9 4 -18 5 -14 12 -12
45 15 21 17 39 35 39 40 0 15 -27 8 -56 -14z"/>
<path d="M1912 1935 c-35 -29 -47 -70 -33 -107 7 -19 6 -29 -5 -39 -12 -13
-10 -19 14 -49 19 -22 31 -30 36 -22 4 7 18 12 31 12 28 0 56 25 49 44 -3 8 3
20 14 27 36 27 55 66 48 104 -8 41 -30 55 -85 55 -28 0 -48 -7 -69 -25z"/>
<path d="M2146 1730 c-66 -94 -165 -180 -256 -223 -80 -37 -208 -49 -255 -24
l-29 15 59 37 c98 63 145 119 145 176 0 42 -24 69 -64 69 -39 0 -74 -21 -127
-77 -77 -79 -115 -178 -93 -238 12 -31 64 -47 153 -47 137 0 248 35 421 133
l55 31 -32 -34 c-65 -68 -75 -80 -68 -86 4 -4 17 5 29 21 12 15 25 27 29 27
30 0 155 139 164 183 3 15 10 27 15 27 5 0 6 4 3 10 -4 6 -16 3 -32 -7 l-26
-18 17 27 c17 26 8 47 -14 33 -5 -3 -12 6 -16 20 -3 14 -10 25 -14 25 -5 0
-34 -36 -64 -80z"/>
<path d="M2428 1338 c-7 -13 -14 -34 -16 -47 -3 -21 -1 -23 13 -11 12 10 21
10 41 1 61 -28 111 3 64 41 -12 10 -25 16 -28 14 -3 -3 6 -14 19 -25 21 -17
22 -20 8 -26 -9 -3 -33 1 -54 9 -32 14 -36 19 -31 41 8 31 1 32 -16 3z"/>
<path d="M2397 1245 c-4 -8 -2 -17 4 -21 6 -3 8 -12 5 -19 -3 -8 10 -19 35
-29 46 -19 49 -19 49 -7 0 5 -13 14 -29 21 -16 6 -37 20 -47 31 -16 18 -16 19
2 19 10 0 34 -9 53 -21 18 -11 35 -18 38 -15 7 6 -73 56 -91 56 -8 0 -16 -7
-19 -15z"/>
<path d="M2361 1177 c-8 -11 -6 -22 12 -47 28 -41 61 -55 82 -34 20 20 19 27
-6 55 -18 21 -20 21 -14 4 12 -34 11 -50 -5 -50 -10 0 -15 10 -15 29 0 36 -36
64 -54 43z m39 -39 c0 -6 -7 -5 -15 2 -8 7 -15 17 -15 22 0 6 7 5 15 -2 8 -7
15 -17 15 -22z"/>
<path d="M2317 1113 c-4 -3 -7 -14 -7 -24 0 -9 -7 -16 -17 -15 -10 0 -19 -10
-24 -29 -8 -26 -4 -33 29 -62 55 -49 69 -40 23 15 -23 27 -41 51 -41 55 0 15
24 5 57 -23 33 -29 53 -38 53 -22 0 4 -9 13 -20 19 -11 7 -26 26 -35 43 -21
41 1 41 40 0 29 -31 45 -38 45 -20 0 10 -77 70 -90 70 -4 0 -10 -3 -13 -7z"/>
<path d="M2180 995 c-7 -8 -9 -23 -4 -37 6 -20 5 -21 -9 -10 -9 8 -18 9 -21 3
-9 -14 80 -101 104 -101 27 0 25 12 -6 41 -33 31 -57 77 -50 95 9 22 36 3 71
-50 31 -46 45 -57 45 -32 0 21 -80 106 -100 106 -9 0 -23 -7 -30 -15z"/>
<path d="M2080 975 c0 -8 7 -15 15 -15 8 0 15 7 15 15 0 8 -7 15 -15 15 -8 0
-15 -7 -15 -15z"/>
<path d="M2110 933 c0 -9 50 -95 68 -115 8 -10 21 -18 29 -18 8 0 -6 28 -34
70 -43 62 -63 83 -63 63z"/>
<path d="M2052 911 c-9 -5 -12 -24 -10 -57 2 -40 7 -49 23 -52 16 -3 18 -1 8
9 -14 14 -18 79 -5 79 10 0 42 -54 42 -70 0 -7 -13 -24 -29 -39 -22 -20 -28
-34 -24 -50 8 -31 46 -27 83 9 l30 29 -30 51 c-17 28 -30 54 -30 59 0 8 -33
41 -41 41 -2 0 -10 -4 -17 -9z m75 -152 c-13 -21 -44 -35 -55 -24 -9 9 47 57
59 50 5 -3 3 -14 -4 -26z"/>
<path d="M1083 868 c5 -14 1 -18 -21 -17 -24 0 -25 1 -7 9 13 5 14 9 5 9 -8 0
-24 -4 -35 -9 -16 -7 -16 -9 -4 -9 19 -1 21 -48 4 -67 -36 -41 -40 -53 -40
-108 0 -38 -4 -60 -12 -63 -7 -3 -13 -9 -13 -15 0 -5 5 -6 10 -3 6 3 10 2 10
-3 0 -5 -10 -13 -22 -17 -16 -5 9 -11 79 -19 56 -6 105 -14 109 -18 12 -13 64
-9 64 5 0 6 -12 23 -25 36 -21 19 -40 25 -97 29 -52 4 -69 2 -64 -7 4 -6 3
-11 -3 -11 -11 0 -5 45 11 89 8 22 12 23 90 20 59 -3 82 -1 85 9 3 6 -2 12
-10 12 -8 0 -17 7 -21 15 -7 18 -36 20 -36 3 0 -10 -2 -10 -9 0 -4 8 -12 14
-16 14 -4 0 -12 -6 -16 -14 -7 -10 -9 -10 -9 0 0 6 -8 12 -17 12 -15 0 -16 -2
-3 -10 12 -8 11 -10 -6 -10 -21 0 -21 2 -9 43 l12 42 122 3 c94 2 121 6 121
16 0 21 -23 26 -119 26 -56 0 -92 4 -100 13 -11 10 -13 9 -8 -5z m-63 -133
c-7 -9 -15 -13 -19 -10 -3 3 1 10 9 15 21 14 24 12 10 -5z"/>
<path d="M1894 845 c3 -9 -4 -21 -19 -31 -32 -21 -35 -50 -4 -34 11 7 22 10
23 8 2 -2 8 -30 15 -63 14 -74 39 -104 75 -87 26 12 42 58 31 92 -8 25 -25 27
-19 3 6 -25 -10 -76 -24 -81 -15 -5 -40 54 -48 112 -6 43 -6 43 35 59 22 9 41
21 41 27 0 13 -1 13 -44 -5 -33 -14 -37 -14 -42 0 -4 8 -11 15 -16 15 -6 0 -8
-7 -4 -15z"/>
<path d="M1793 798 c-6 -7 -14 -26 -18 -43 -4 -16 -10 -24 -12 -17 -3 6 -9 12
-15 12 -14 0 -3 -112 14 -148 15 -31 35 -30 29 1 -4 27 -5 30 -3 95 2 52 15
69 25 32 10 -37 30 -23 24 17 -8 45 -29 70 -44 51z"/>
<path d="M1456 776 c-4 -16 -15 -25 -37 -30 -35 -7 -35 -33 1 -28 22 4 22 2
18 -60 -6 -78 6 -116 38 -124 42 -11 90 54 75 100 -6 14 -10 10 -19 -22 -35
-116 -88 -53 -66 80 6 35 9 37 56 45 64 11 66 26 3 27 -42 1 -50 4 -47 19 4
26 -15 20 -22 -7z"/>
<path d="M1299 735 c-23 -39 -34 -46 -24 -15 4 11 2 20 -4 20 -16 0 -22 -38
-19 -114 2 -44 8 -71 16 -74 8 -2 12 7 12 30 0 34 13 93 32 141 11 28 33 36
40 15 4 -12 -4 -81 -17 -152 -6 -31 -5 -38 6 -34 15 5 36 89 38 146 2 75 -45
97 -80 37z"/>
<path d="M1625 743 c-23 -34 -35 -89 -28 -124 6 -33 38 -69 59 -69 26 0 64 47
64 79 0 43 -18 48 -25 7 -4 -19 -16 -42 -26 -52 -18 -17 -20 -16 -34 2 -23 29
-15 58 17 62 22 3 29 10 34 38 7 40 -8 84 -30 84 -7 0 -22 -12 -31 -27z m27
-75 c-18 -18 -31 1 -22 32 15 52 25 58 28 16 2 -21 -1 -43 -6 -48z"/>
<path d="M1766 202 c-2 -4 -1 -14 4 -22 7 -11 12 -12 21 -3 6 6 8 16 5 22 -8
13 -23 14 -30 3z"/>
<path d="M1520 175 c0 -17 5 -25 13 -22 6 2 12 12 12 22 0 10 -6 20 -12 23 -8
2 -13 -6 -13 -23z"/>
<path d="M1988 194 c-5 -4 -8 -19 -8 -33 0 -18 3 -22 11 -14 6 6 9 21 7 33 -1
12 -6 18 -10 14z"/>
<path d="M1570 176 c0 -7 7 -19 15 -26 9 -8 15 -8 15 -2 0 6 3 17 6 26 4 12 0
16 -15 16 -12 0 -21 -6 -21 -14z"/>
<path d="M1245 160 c-3 -5 -1 -10 4 -10 6 0 11 5 11 10 0 6 -2 10 -4 10 -3 0
-8 -4 -11 -10z"/>
<path d="M1470 160 c0 -5 5 -10 10 -10 6 0 10 5 10 10 0 6 -4 10 -10 10 -5 0
-10 -4 -10 -10z"/>
<path d="M1875 160 c-3 -5 -1 -10 4 -10 6 0 11 5 11 10 0 6 -2 10 -4 10 -3 0
-8 -4 -11 -10z"/>
<path d="M1067 193 c-13 -12 -7 -43 8 -43 9 0 15 9 15 25 0 24 -10 32 -23 18z"/>
<path d="M585 160 c-3 -5 1 -10 9 -10 9 0 16 5 16 10 0 6 -4 10 -9 10 -6 0
-13 -4 -16 -10z"/>
<path d="M960 160 c0 -5 5 -10 10 -10 6 0 10 5 10 10 0 6 -4 10 -10 10 -5 0
-10 -4 -10 -10z"/>
<path d="M2210 160 c0 -5 5 -10 10 -10 6 0 10 5 10 10 0 6 -4 10 -10 10 -5 0
-10 -4 -10 -10z"/>
<path d="M2460 160 c0 -5 5 -10 10 -10 6 0 10 5 10 10 0 6 -4 10 -10 10 -5 0
-10 -4 -10 -10z"/>
<path d="M2814 185 c-9 -22 22 -53 37 -38 15 15 7 47 -14 51 -9 2 -20 -4 -23
-13z"/>
</g>
</svg>
